<svg width="800" height="500" xmlns="http://www.w3.org/2000/svg">
  <defs>
    <linearGradient id="grad4" x1="0%" y1="0%" x2="100%" y2="100%">
      <stop offset="0%" style="stop-color:#43e97b;stop-opacity:1" />
      <stop offset="100%" style="stop-color:#38f9d7;stop-opacity:1" />
    </linearGradient>
  </defs>
  <rect width="800" height="500" fill="url(#grad4)"/>
  <text x="400" y="200" font-family="Arial, sans-serif" font-size="32" font-weight="bold" text-anchor="middle" fill="white">RAG Knowledge Base</text>
  <text x="400" y="250" font-family="Arial, sans-serif" font-size="18" text-anchor="middle" fill="white" opacity="0.9">Intelligent document processing and retrieval</text>
  
  <!-- Document stack -->
  <rect x="200" y="300" width="120" height="160" rx="5" fill="rgba(255,255,255,0.3)" stroke="rgba(255,255,255,0.6)" stroke-width="2"/>
  <rect x="210" y="310" width="100" height="140" rx="3" fill="rgba(255,255,255,0.2)" stroke="rgba(255,255,255,0.4)" stroke-width="1"/>
  <rect x="220" y="320" width="80" height="120" rx="2" fill="rgba(255,255,255,0.1)" stroke="rgba(255,255,255,0.3)" stroke-width="1"/>
  
  <!-- AI brain icon -->
  <circle cx="500" cy="350" r="50" fill="rgba(255,255,255,0.2)" stroke="rgba(255,255,255,0.8)" stroke-width="3"/>
  <path d="M480,340 Q500,330 520,340 Q530,350 520,360 Q500,370 480,360 Q470,350 480,340" fill="rgba(255,255,255,0.6)"/>
  <path d="M485,345 Q500,335 515,345 Q520,350 515,355 Q500,365 485,355 Q480,350 485,345" fill="rgba(255,255,255,0.8)"/>
  
  <!-- Search results -->
  <rect x="300" y="320" width="300" height="120" rx="10" fill="rgba(255,255,255,0.1)" stroke="rgba(255,255,255,0.3)" stroke-width="2"/>
  <rect x="320" y="340" width="260" height="15" rx="3" fill="rgba(255,255,255,0.4)"/>
  <rect x="320" y="365" width="200" height="15" rx="3" fill="rgba(255,255,255,0.3)"/>
  <rect x="320" y="390" width="240" height="15" rx="3" fill="rgba(255,255,255,0.3)"/>
  <rect x="320" y="415" width="180" height="15" rx="3" fill="rgba(255,255,255,0.3)"/>
  
  <!-- Connection arrows -->
  <path d="M320,380 Q350,380 380,380" stroke="rgba(255,255,255,0.6)" stroke-width="2" fill="none" marker-end="url(#arrowhead)"/>
  <path d="M500,300 Q500,320 500,340" stroke="rgba(255,255,255,0.6)" stroke-width="2" fill="none" marker-end="url(#arrowhead)"/>
  
  <defs>
    <marker id="arrowhead" markerWidth="10" markerHeight="7" refX="9" refY="3.5" orient="auto">
      <polygon points="0 0, 10 3.5, 0 7" fill="rgba(255,255,255,0.6)"/>
    </marker>
  </defs>
</svg> 